<?xml version="1.0" encoding="UTF-8"?>
<svg width="100pt" height="100pt" version="1.1" viewBox="0 0 100 100" xmlns="http://www.w3.org/2000/svg">
 <path d="m44.383 91.602c-8.8438-0.042968-17.066-4.5469-21.871-11.969-2.6367-4.1055-4.0312-8.9219-4.0312-13.93v-16.613-0.035156-18.82c0-3.9727 3.1953-7.2148 7.1211-7.2305h0.027344c1.4062-0.003906 2.7773 0.41016 3.9492 1.1875v-2.6719c0-3.9727 3.1953-7.2148 7.1211-7.2305h0.027343-0.003906c1.4062-0.003906 2.7812 0.41016 3.9492 1.1875 0.019531-3.9453 3.2344-7.1289 7.1836-7.1094 3.9453 0.019531 7.1328 3.2344 7.1133 7.1797v0.75391c1.1562-0.78516 2.5234-1.2031 3.9219-1.207h0.027344-0.003907c3.9492 0 7.1484 3.1992 7.1484 7.1484v31.527l2.582-3.4609c2.3828-3.1016 6.8125-3.7109 9.9453-1.3711 3.1328 2.3359 3.8047 6.7578 1.5117 9.9219l-0.011718 0.011719-11.387 14.945c-1.8516 5.2852-5.1016 9.7305-9.4141 12.867-4.0078 2.9141-8.6719 4.6016-13.48 4.8789-0.47266 0.023438-0.94531 0.039062-1.4258 0.039062zm-22.699-42.582v0.035157 16.645c0 8.6914 4.6367 16.242 12.406 20.199 7.6758 3.9062 16.395 3.2305 23.324-1.8086 3.8945-2.832 6.6992-6.7227 8.3516-11.559 0.054687-0.16406 0.13281-0.31641 0.23438-0.45312l11.539-15.137c1.2617-1.75 0.88672-4.1875-0.84375-5.4766-1.7305-1.2891-4.1719-0.94922-5.4883 0.75781l-5.4648 7.3203c-0.41016 0.55078-1.1289 0.77734-1.7852 0.5625-0.65234-0.21875-1.0938-0.83203-1.0938-1.5195v-36.348c0-1.0469-0.41797-2.0508-1.1562-2.7891-0.74219-0.74219-1.7461-1.1562-2.793-1.1562h-0.015624c-2.168 0.007812-3.9336 1.8164-3.9336 4.0312l0.003906 12.547c0 0.88281-0.71875 1.5977-1.6016 1.5977-0.88281 0-1.6016-0.71484-1.6016-1.5977v-19.324c0.019531-1.0586-0.39062-2.0781-1.1328-2.832-0.74219-0.75391-1.7539-1.1758-2.8125-1.1758-1.0586 0-2.0742 0.42188-2.8164 1.1758-0.74219 0.75391-1.1484 1.7734-1.1328 2.832v19.324c0 0.88281-0.71484 1.5977-1.5977 1.5977-0.88672 0-1.6016-0.71484-1.6016-1.5977v-13.465c-0.019531-2.168-1.7812-3.9141-3.9492-3.9141h-0.015625c-2.168 0.007812-3.9336 1.8164-3.9336 4.0312l0.003906 13.348c0 0.88281-0.71484 1.5977-1.6016 1.5977-0.88281 0-1.5977-0.71484-1.5977-1.5977v-4.7188c0-1.0469-0.41797-2.0508-1.1562-2.793-0.74219-0.73828-1.7461-1.1562-2.793-1.1562h-0.015625c-2.168 0.007813-3.9336 1.8164-3.9336 4.0312z"/>
 <path d="m42.27 63.422c-2.5508-0.003906-4.6172-2.0703-4.625-4.6211 0-0.88281 0.71875-1.6016 1.6016-1.6016 0.88281 0 1.5977 0.71875 1.5977 1.6016 0 0.57422 0.34766 1.0977 0.88281 1.3164 0.53125 0.22266 1.1445 0.097656 1.5547-0.30859 0.40625-0.40625 0.52734-1.0195 0.30859-1.5547-0.22266-0.53125-0.74219-0.87891-1.3203-0.87891-1.8672-0.003906-3.5547-1.1289-4.2695-2.8594-0.71484-1.7266-0.32031-3.7148 1.0039-5.0391 1.3203-1.3203 3.3086-1.7188 5.0391-1.0039 1.7266 0.71484 2.8555 2.3984 2.8555 4.2695 0 0.88281-0.71484 1.6016-1.5977 1.6016-0.88281 0-1.6016-0.71875-1.6016-1.6016 0-0.57422-0.34766-1.0977-0.87891-1.3164-0.53516-0.22266-1.1484-0.097656-1.5547 0.30859s-0.53125 1.0195-0.30859 1.5547c0.21875 0.53125 0.73828 0.87891 1.3164 0.87891 1.2383-0.015625 2.4336 0.46094 3.3164 1.332 0.88281 0.86719 1.3789 2.0547 1.3789 3.293s-0.49609 2.4258-1.3789 3.2969c-0.88281 0.86719-2.0781 1.3477-3.3164 1.332z"/>
 <path d="m42.27 65.016c-0.88281 0-1.5977-0.71875-1.5977-1.6016v-1.5938c0-0.88281 0.71484-1.5977 1.5977-1.5977 0.88672 0 1.6016 0.71484 1.6016 1.5977v1.5938c0 0.88281-0.71484 1.6016-1.6016 1.6016z"/>
 <path d="m42.27 51.316c-0.88281 0-1.5977-0.71484-1.5977-1.5977v-1.5977c0-0.88281 0.71484-1.5977 1.5977-1.5977 0.88672 0 1.6016 0.71484 1.6016 1.5977v1.5977c0 0.88281-0.71484 1.5977-1.6016 1.5977z"/>
 <path d="m42.27 69.316c-7.4688 0-13.547-6.0781-13.547-13.547 0.003906-7.4688 6.0781-13.547 13.547-13.547 7.4727 0 13.547 6.0781 13.547 13.547s-6.0781 13.547-13.547 13.547zm0-23.891v-0.003906c-4.1836 0-7.957 2.5234-9.5586 6.3867-1.6016 3.8672-0.71484 8.3164 2.2461 11.277 2.957 2.957 7.4062 3.8438 11.273 2.2422 3.8672-1.6016 6.3867-5.375 6.3867-9.5586-0.007813-5.7109-4.6328-10.34-10.348-10.348z"/>
</svg>
